HIERARCHY
ROOT Hips
{
	OFFSET 0.00000 0.00000 0.00000
	CHANNELS 6 Xposition Yposition Zposition Zrotation Yrotation Xrotation 
	JOINT LHipJoint
	{
		OFFSET 0 0 0
		CHANNELS 3 Zrotation Yrotation Xrotation
		JOINT LeftHip
		{
			OFFSET 1.84395 -1.68683 0.74144
			CHANNELS 3 Zrotation Yrotation Xrotation
			JOINT LeftKnee
			{
				OFFSET 2.27037 -6.23779 0.00000
				CHANNELS 3 Zrotation Yrotation Xrotation
				JOINT LeftAnkle
				{
					OFFSET 2.56918 -7.05877 0.00000
					CHANNELS 3 Zrotation Yrotation Xrotation
					JOINT LeftToe
					{
						OFFSET 0.22276 -0.61202 1.71784
						CHANNELS 3 Zrotation Yrotation Xrotation
						End Site
						{
							OFFSET 0.00000 -0.00000 0.91613
						}
					}
				}
			}
		}
	}
	JOINT RHipJoint
	{
		OFFSET 0 0 0
		CHANNELS 3 Zrotation Yrotation Xrotation
		JOINT RightHip
		{
			OFFSET -1.76833 -1.68684 0.74144
			CHANNELS 3 Zrotation Yrotation Xrotation
			JOINT RightKnee
			{
				OFFSET -2.49360 -6.85110 0.00000
				CHANNELS 3 Zrotation Yrotation Xrotation
				JOINT RightAnkle
				{
					OFFSET -2.55538 -7.02085 0.00000
					CHANNELS 3 Zrotation Yrotation Xrotation
					JOINT RightToe
					{
						OFFSET -0.21516 -0.59115 1.68050
						CHANNELS 3 Zrotation Yrotation Xrotation
						End Site
						{
							OFFSET -0.00000 -0.00000 0.89604
						}
					}
				}
			}
		}
	}
	JOINT lowerback
	{
		OFFSET 0 0 0
		CHANNELS 3 Zrotation Yrotation Xrotation
		JOINT Chest
		{
			OFFSET 0.06382 1.72312 -0.19613
			CHANNELS 3 Zrotation Yrotation Xrotation
			JOINT Chest2
			{
				OFFSET -0.00055 1.73507 0.23859
				CHANNELS 3 Zrotation Yrotation Xrotation
				JOINT lowerneck
				{
					OFFSET 0 0 0
					CHANNELS 3 Zrotation Yrotation Xrotation
					JOINT Neck
					{
						OFFSET 0.03638 1.65562 0.09633
						CHANNELS 3 Zrotation Yrotation Xrotation
						JOINT Head
						{
							OFFSET 0.06388 1.62807 -0.32386
							CHANNELS 3 Zrotation Yrotation Xrotation
							End Site
							{
								OFFSET 0.00995 1.67644 -0.12021
							}
						}
					}
				}
				JOINT LeftCollar
				{
					OFFSET 0 0 0
					CHANNELS 3 Zrotation Yrotation Xrotation
					JOINT LeftShoulder
					{
						OFFSET 3.09648 1.42991 0.28122
CHANNELS 3 Zrotation Xrotation Yrotation
						JOINT LeftElbow
						{
OFFSET 0 -5.118780 -0.000000
CHANNELS 3 Zrotation Xrotation Yrotation
							JOINT LeftWrist
							{
OFFSET 0 -3.599710 0.000000
CHANNELS 3 Zrotation Xrotation Yrotation
								JOINT lhand
								{
									OFFSET 0 0 0
CHANNELS 3 Zrotation Xrotation Yrotation
									JOINT LFingers
									{
OFFSET 0 -0.628770 0.000000
CHANNELS 3 Zrotation Xrotation Yrotation
										End Site
										{
OFFSET 0 -0.506930 0.000000
										}
									}
								}
								JOINT LThumb
								{
OFFSET 0 0.000000 0.000000
CHANNELS 3 Zrotation Xrotation Yrotation
									End Site
									{
OFFSET 0 -0.514670 0.514670
									}
								}
							}
						}
					}
				}
				JOINT RightCollar
				{
					OFFSET 0 0 0
					CHANNELS 3 Zrotation Yrotation Xrotation
					JOINT RightShoulder
					{
						OFFSET -3.33565 1.14597 0.05047
CHANNELS 3 Zrotation Xrotation Yrotation
						JOINT RightElbow
						{
OFFSET 0 -5.490200 0.000000
CHANNELS 3 Zrotation Xrotation Yrotation
							JOINT RightWrist
							{
OFFSET 0 -3.206590 -0.000000
CHANNELS 3 Zrotation Xrotation Yrotation
								JOINT rhand
								{
									OFFSET 0 0 0
CHANNELS 3 Zrotation Xrotation Yrotation
									JOINT RFingers
									{
OFFSET 0 -0.691880 0.000000
CHANNELS 3 Zrotation Xrotation Yrotation
										End Site
										{
OFFSET 0 -0.557810 0.000000
										}
									}
								}
								JOINT RThumb
								{
OFFSET 0 0.000000 0.000000
CHANNELS 3 Zrotation Xrotation Yrotation
									End Site
									{
OFFSET 0 -0.566330 0.566330
									}
								}
							}
						}
					}
				}
			}
		}
	}
}
MOTION
Frames: 8
Frame Time: 0.008333333333333333
-0.464100 17.494000 8.282100 -8.059900 -3.510300 8.551500 0.000000 0.000000 0.000000 -23.808200 -40.065800 28.435700 0.066800 -1.667500 -4.587600 -3.607100 43.327900 -49.904200 1.058500 6.541500 18.363900 0.000000 0.000000 0.000000 26.827100 24.406400 7.971000 -0.000900 -0.193900 0.532800 0.909900 -19.520900 -18.342400 -0.007700 0.565400 -1.553600 5.812000 0.822300 1.843100 0.519900 1.588600 -9.176000 -2.861100 0.295400 -10.709300 -9.889600 -12.656500 1.464700 14.398200 -19.156700 14.006000 4.843000 -9.233500 6.357600 -0.000000 0.000000 0.000000 0.370300 14.420900 -5.560900 11.795400 -19.497100 2.033500 12.615100 23.841600 9.975100 0.000000 0.000000 0.000000 -7.125000 0.000000 0.000000 -10.219200 19.842100 -6.243000 -0.000000 0.000000 0.000000 3.897100 12.722800 -1.070500 -13.690400 -22.290400 -2.709600 8.539400 38.236700 30.739000 0.000000 0.000000 0.000000 7.125000 0.000000 -0.000000 42.210500 55.464600 -12.441600
-0.469435 17.494231 8.267219 -8.151084 -3.478306 8.688411 0.000000 0.000000 0.000000 -23.222024 -39.927652 27.843160 0.066655 -1.665674 -4.582476 -3.677116 43.196110 -49.438614 1.039913 6.485617 18.200133 0.000000 0.000000 0.000000 26.907394 24.625897 7.767001 -0.001403 -0.238132 0.654230 0.908983 -19.602944 -18.552802 -0.003497 0.382399 -1.050692 5.791754 0.671303 1.819114 0.886017 1.405846 -9.005286 -2.435693 0.236057 -10.526053 -10.006470 -12.494187 -0.042755 13.606972 -18.793648 14.782700 4.534151 -9.006249 6.748463 0.000000 0.000000 0.000000 -0.410931 14.011510 -6.176161 12.137659 -20.010557 2.149305 12.627401 22.543318 10.072933 0.000000 0.000000 0.000000 -7.125000 0.000000 0.000000 -10.206856 19.742981 -6.258183 0.000000 0.000000 0.000000 3.232717 12.062789 -0.081358 -13.704136 -22.310203 -2.714776 8.420044 38.075437 30.521128 0.000000 0.000000 0.000000 7.125000 0.000000 0.000000 41.907400 55.321005 -12.170005
-0.477376 17.494072 8.254002 -8.283631 -3.440262 8.846991 0.000000 0.000000 0.000000 -22.571598 -39.809686 27.264446 0.067710 -1.678655 -4.618336 -3.787157 43.118393 -48.942088 1.012702 6.402699 17.957421 0.000000 0.000000 0.000000 27.047660 24.905099 7.556026 -0.002106 -0.294969 0.810457 0.919806 -19.716004 -18.664632 -0.002897 0.347997 -0.956103 5.781143 0.517021 1.819495 1.268262 1.224432 -8.890543 -2.000668 0.173218 -10.419890 -10.160788 -12.333122 -1.530502 12.809459 -18.416672 15.604401 4.235300 -8.784120 7.158549 0.000000 0.000000 0.000000 -1.155558 13.669260 -6.735455 12.508994 -20.563110 2.278209 12.272444 21.545339 10.432870 0.000000 0.000000 0.000000 -7.125000 0.000000 0.000000 -10.443437 19.399932 -6.492786 0.000000 0.000000 0.000000 2.625659 11.531332 0.865388 -13.795834 -22.442017 -2.749673 8.549135 37.717225 30.587813 0.000000 0.000000 0.000000 7.125000 0.000000 0.000000 42.082745 55.346582 -12.263818
-0.486897 17.496051 8.245218 -8.340279 -3.376713 9.077873 0.000000 0.000000 0.000000 -21.996755 -39.812307 26.665589 0.068248 -1.685581 -4.637446 -3.850443 43.033435 -48.573696 0.999223 6.361199 17.836251 0.000000 0.000000 0.000000 27.090552 25.261385 7.329441 -0.002603 -0.328485 0.902571 0.954487 -19.967170 -18.767943 -0.001462 0.219626 -0.603443 5.663013 0.337221 1.650480 1.659688 0.988202 -8.785932 -1.490300 0.094326 -10.224666 -10.361919 -12.129736 -2.958062 12.063775 -17.959574 16.360277 3.979055 -8.537595 7.543974 0.000000 0.000000 0.000000 -1.888673 13.355118 -7.300849 12.959202 -21.226460 2.439142 11.536445 20.859123 11.868096 0.000000 0.000000 0.000000 -7.125000 0.000000 0.000000 -10.907682 18.000449 -7.135209 0.000000 0.000000 0.000000 1.920111 10.971967 2.031364 -13.809029 -22.460989 -2.754720 8.512776 37.217051 30.656281 0.000000 0.000000 0.000000 7.125000 0.000000 0.000000 42.111955 55.406439 -12.340399
-0.502474 17.500764 8.234240 -8.152180 -3.425664 9.483537 0.000000 0.000000 0.000000 -21.541146 -39.986577 25.815347 0.066756 -1.666635 -4.585246 -3.889621 43.011867 -48.404032 0.983565 6.312631 17.694258 0.000000 0.000000 0.000000 26.805342 25.977821 6.986136 -0.003044 -0.353716 0.971883 1.028724 -20.469594 -18.928679 -0.001676 -0.177680 0.488183 5.207324 0.101335 1.680228 2.128290 0.681749 -8.857560 -0.701971 0.002980 -10.348485 -10.819917 -11.980423 -5.269131 10.956261 -17.490729 18.079129 3.580161 -8.281121 8.406878 0.000000 0.000000 0.000000 -2.835676 13.368721 -8.817339 13.656210 -22.239218 2.697806 12.057597 19.014582 10.578747 0.000000 0.000000 0.000000 -7.125000 0.000000 0.000000 -10.589946 19.266499 -6.623269 0.000000 0.000000 0.000000 0.827383 10.455552 3.765976 -13.646317 -22.226641 -2.692903 8.328436 36.453867 30.640018 0.000000 0.000000 0.000000 7.125000 0.000000 0.000000 41.932490 55.430672 -12.299161
-0.509391 17.503920 8.226875 -7.787219 -3.508654 9.669885 0.000000 0.000000 0.000000 -21.722212 -40.166801 25.443823 0.063693 -1.628380 -4.479676 -3.903303 43.063291 -48.460078 0.982437 6.309070 17.683907 0.000000 0.000000 0.000000 26.323132 26.356668 6.820844 -0.002942 -0.349114 0.959167 1.071717 -20.742670 -18.988653 -0.006169 -0.501935 1.379271 4.820041 0.074364 1.771962 2.154395 0.634223 -9.028630 -0.451647 0.006418 -10.599416 -10.816304 -11.854676 -6.048820 10.409177 -17.222726 18.815948 3.381632 -8.146100 8.708072 0.000000 0.000000 0.000000 -2.987035 13.796557 -11.202615 14.332579 -23.207533 2.958291 13.055112 16.919622 7.935138 0.000000 0.000000 0.000000 -7.125000 0.000000 0.000000 -9.992885 21.880907 -5.635465 0.000000 0.000000 0.000000 0.507541 10.448664 4.726005 -13.619467 -22.188082 -2.682665 8.338741 35.561810 30.617682 0.000000 0.000000 0.000000 7.125000 0.000000 0.000000 41.921624 55.411502 -12.274123
-0.509929 17.504303 8.222660 -7.710984 -3.495277 9.667900 0.000000 0.000000 0.000000 -21.686681 -40.044919 25.257970 0.062990 -1.618911 -4.453553 -4.003871 43.066784 -48.135972 0.954831 6.222472 17.431305 0.000000 0.000000 0.000000 26.233749 26.375204 6.804071 -0.003010 -0.356379 0.979310 1.066937 -20.738490 -19.045898 -0.008981 -0.612931 1.684363 4.833416 0.094798 1.693678 2.102582 0.653214 -9.035639 -0.516654 0.012438 -10.558318 -10.414766 -11.663003 -6.230102 10.085492 -16.934501 18.992019 3.246169 -8.000076 8.699068 0.000000 0.000000 0.000000 -2.854502 13.909107 -12.602204 14.722758 -23.758434 3.113426 12.962755 15.995486 7.935776 0.000000 0.000000 0.000000 -7.125000 0.000000 0.000000 -10.059046 21.882560 -5.671191 0.000000 0.000000 0.000000 0.559959 10.493324 5.375413 -13.788171 -22.431074 -2.746775 8.486780 34.765982 30.600804 0.000000 0.000000 0.000000 7.125000 0.000000 0.000000 42.038710 55.369054 -12.271787
-0.511004 17.504502 8.218543 -7.811241 -3.424726 9.676984 0.000000 0.000000 0.000000 -21.443157 -39.948120 25.097347 0.063006 -1.619866 -4.456123 -4.098547 43.071392 -47.828529 0.925194 6.127621 17.155354 0.000000 0.000000 0.000000 26.359866 26.336470 6.765730 -0.003259 -0.368230 1.011703 1.067831 -20.750176 -19.062790 -0.007687 -0.564189 1.550477 5.012010 0.101222 1.611201 2.114011 0.670601 -9.049768 -0.605160 0.006808 -10.524984 -10.126535 -11.469537 -6.396670 9.842695 -16.650166 19.174014 3.153197 -7.857254 8.709974 0.000000 0.000000 0.000000 -2.748132 13.946006 -13.631694 15.005905 -24.154229 3.228418 12.575507 15.451327 8.296090 0.000000 0.000000 0.000000 -7.125000 0.000000 0.000000 -10.320216 21.534098 -5.906291 0.000000 0.000000 0.000000 0.550472 10.569388 6.079607 -13.943250 -22.653558 -2.806251 8.582378 34.205572 30.545491 0.000000 0.000000 0.000000 7.125000 0.000000 0.000000 42.074158 55.307517 -12.217626
